# xmcd CD database file
# Copyright (C) 1993-1998 Ti Kan
#
# Track frame offsets:
#	150
#	12915
#	27175
#	37225
#	52080
#	63677
#	73442
#	86422
#	100712
#	115562
#	128025
#	142497
#	154202
#	166215
#	180237
#	194042
#	207470
#	220485
#	233015
#	248572
#	259412
#	272135
#	283110
#	294787
#
# Disc length: 4111 seconds
#
# Revision: 1
# Processed by: cddbd v1.4b41PL1 Copyright (c) Steve Scherf et al.
# Submitted via: CDValet v3.31 - Copyright (c) 1997 Greg Leichner
#
DISCID=76100d18
DTITLE=Doris Day - It's Magic
DYEAR=1900
DGENRE=
TTITLE0=Someone like you
TTITLE1=My dream is yours
TTITLE2=I'm in love
TTITLE3=It's you or no one
TTITLE4=My darling, my darling
TTITLE5=That certain party
TTITLE6=His fraternity pin
TTITLE7=His fraternity pin
TTITLE8=If you will marry me
TTITLE9=You was
TTITLE10=I'll string along with you
TTITLE11=Powder your face with sunshine
TTITLE12=Don't gamble with romance
TTITLE13=I'm beginning to miss you
TTITLE14=That old feeling
TTITLE15=When your lover has gone
TTITLE16=You go to my head
TTITLE17=How it lies, how it lies, how it lies
TTITLE18=If I could be with you one hour tonight
TTITLE19=Everwhere you go
TTITLE20=Again
TTITLE21=(Where are you) Now that I need you most
TTITLE22=Blame my absent minded heart
TTITLE23=Let's take an old-fashioned walk
EXTD=
EXTT0=
EXTT1=
EXTT2=
EXTT3=
EXTT4=
EXTT5=
EXTT6=
EXTT7=
EXTT8=
EXTT9=
EXTT10=
EXTT11=
EXTT12=
EXTT13=
EXTT14=
EXTT15=
EXTT16=
EXTT17=
EXTT18=
EXTT19=
EXTT20=
EXTT21=
EXTT22=
EXTT23=
PLAYORDER=
